<svg xmlns="http://www.w3.org/2000/svg" viewBox="0 0 860 386" font-family="ui-sans-serif,system-ui,-apple-system,Segoe UI,Roboto,sans-serif">
<style>text{fill:#2b2b2b}.m{fill:#6b6b6b}@media(prefers-color-scheme:dark){text{fill:#e8e8e8}.m{fill:#a8a8a8}.grid{stroke:#3a3a3a}}</style>
<text x="16" y="26" font-size="16" font-weight="600">Hand-written SGEMM vs cuBLAS &#183; N=4096</text>
<text x="16" y="45" font-size="11.5" class="m">RTX 4070 Laptop (sm_89), SM clock pinned 1200 MHz, fp32</text>
<line class="grid" x1="150.0" y1="60" x2="150.0" y2="332" stroke="#d8d8d8" stroke-width="1"/>
<text x="150.0" y="348" font-size="10" text-anchor="middle" class="m">0</text>
<line class="grid" x1="228.1" y1="60" x2="228.1" y2="332" stroke="#d8d8d8" stroke-width="1"/>
<text x="228.1" y="348" font-size="10" text-anchor="middle" class="m">1000</text>
<line class="grid" x1="306.2" y1="60" x2="306.2" y2="332" stroke="#d8d8d8" stroke-width="1"/>
<text x="306.2" y="348" font-size="10" text-anchor="middle" class="m">2000</text>
<line class="grid" x1="384.3" y1="60" x2="384.3" y2="332" stroke="#d8d8d8" stroke-width="1"/>
<text x="384.3" y="348" font-size="10" text-anchor="middle" class="m">3000</text>
<line class="grid" x1="462.4" y1="60" x2="462.4" y2="332" stroke="#d8d8d8" stroke-width="1"/>
<text x="462.4" y="348" font-size="10" text-anchor="middle" class="m">4000</text>
<line class="grid" x1="540.5" y1="60" x2="540.5" y2="332" stroke="#d8d8d8" stroke-width="1"/>
<text x="540.5" y="348" font-size="10" text-anchor="middle" class="m">5000</text>
<line class="grid" x1="618.6" y1="60" x2="618.6" y2="332" stroke="#d8d8d8" stroke-width="1"/>
<text x="618.6" y="348" font-size="10" text-anchor="middle" class="m">6000</text>
<line class="grid" x1="696.7" y1="60" x2="696.7" y2="332" stroke="#d8d8d8" stroke-width="1"/>
<text x="696.7" y="348" font-size="10" text-anchor="middle" class="m">7000</text>
<text x="138" y="83.0" font-size="12.5" text-anchor="end">naive</text>
<rect x="150" y="68.0" width="6.5" height="22" rx="3" fill="#b3543f"/>
<text x="164.5" y="83.0" font-size="11.5" font-weight="600">83  <tspan class="m" font-weight="400">(1.2%)</tspan></text>
<text x="138" y="121.0" font-size="12.5" text-anchor="end">coalesced</text>
<rect x="150" y="106.0" width="50.6" height="22" rx="3" fill="#c07f3c"/>
<text x="208.6" y="121.0" font-size="11.5" font-weight="600">648  <tspan class="m" font-weight="400">(9.1%)</tspan></text>
<text x="138" y="159.0" font-size="12.5" text-anchor="end">smem</text>
<rect x="150" y="144.0" width="63.6" height="22" rx="3" fill="#c9a63c"/>
<text x="221.6" y="159.0" font-size="11.5" font-weight="600">815  <tspan class="m" font-weight="400">(11.5%)</tspan></text>
<text x="138" y="197.0" font-size="12.5" text-anchor="end">tile1d</text>
<rect x="150" y="182.0" width="201.2" height="22" rx="3" fill="#9aa845"/>
<text x="359.2" y="197.0" font-size="11.5" font-weight="600">2577  <tspan class="m" font-weight="400">(36.3%)</tspan></text>
<text x="138" y="235.0" font-size="12.5" text-anchor="end">tile2d</text>
<rect x="150" y="220.0" width="411.9" height="22" rx="3" fill="#6a9f5c"/>
<text x="569.9" y="235.0" font-size="11.5" font-weight="600">5274  <tspan class="m" font-weight="400">(74.4%)</tspan></text>
<text x="138" y="273.0" font-size="12.5" text-anchor="end">vectorized</text>
<rect x="150" y="258.0" width="488.9" height="22" rx="3" fill="#3f8f74"/>
<text x="646.9" y="273.0" font-size="11.5" font-weight="600">6260  <tspan class="m" font-weight="400">(88.3%)</tspan></text>
<text x="138" y="311.0" font-size="12.5" text-anchor="end">warptile</text>
<rect x="150" y="296.0" width="501.4" height="22" rx="3" fill="#2f7d8a"/>
<text x="659.4" y="311.0" font-size="11.5" font-weight="600">6420  <tspan class="m" font-weight="400">(90.6%)</tspan></text>
<line x1="703.6" y1="60" x2="703.6" y2="332" stroke="#8a6fb0" stroke-width="2" stroke-dasharray="5,4"/>
<text x="703.6" y="54" font-size="11" font-weight="600" text-anchor="middle" fill="#8a6fb0">cuBLAS 7088</text>
<text x="440" y="366" font-size="10.5" class="m">GFLOP/s</text>
</svg>